<?xml version="1.0" encoding="UTF-8" standalone="no"?>
<svg
   version="1.1"
   id="Layer_1"
   x="0px"
   y="0px"
   width="100%"
   viewBox="0 0 504 438"
   enable-background="new 0 0 504 438"
   xml:space="preserve"
   sodipodi:docname="company-icon.svg"
   inkscape:version="1.2 (dc2aedaf03, 2022-05-15)"
   xmlns:inkscape="http://www.inkscape.org/namespaces/inkscape"
   xmlns:sodipodi="http://sodipodi.sourceforge.net/DTD/sodipodi-0.dtd"
   xmlns="http://www.w3.org/2000/svg"
   xmlns:svg="http://www.w3.org/2000/svg"><defs
   id="defs20" /><sodipodi:namedview
   id="namedview18"
   pagecolor="#ffffff"
   bordercolor="#000000"
   borderopacity="0.25"
   inkscape:showpageshadow="2"
   inkscape:pageopacity="0.0"
   inkscape:pagecheckerboard="true"
   inkscape:deskcolor="#d1d1d1"
   showgrid="false"
   inkscape:zoom="2.9885845"
   inkscape:cx="251.95875"
   inkscape:cy="165.46295"
   inkscape:window-width="2880"
   inkscape:window-height="1541"
   inkscape:window-x="2869"
   inkscape:window-y="-11"
   inkscape:window-maximized="1"
   inkscape:current-layer="Layer_1" />
<path
   fill="#FEFFFF"
   opacity="1.000000"
   stroke="none"
   d=" M378.000000,439.000000   C291.312439,439.000000 204.624878,439.000000 117.528610,438.639221   C117.418983,436.181305 117.118698,433.735565 118.105736,432.038635   C137.419724,398.834381 156.898392,365.726044 176.312668,332.580048   C196.574860,297.986450 216.725281,263.326904 237.134048,228.820099   C240.185883,223.660080 240.485031,219.428955 237.444992,214.105850   C218.146881,180.314682 199.141830,146.356277 179.992691,112.479843   C160.689209,78.330353 141.337860,44.207897 121.989014,10.084078   C118.747444,4.367216 119.635437,2.770267 126.270287,2.649897   C127.103081,2.634789 127.936455,2.653674 128.769562,2.653677   C209.081650,2.653977 289.393738,2.653810 369.705841,2.654748   C372.204956,2.654777 374.827759,2.196266 377.166290,2.812095   C379.254761,3.362076 381.821106,4.648585 382.822479,6.389133   C395.872559,29.072807 408.728851,51.868607 421.540619,74.688583   C448.040192,121.889053 474.471985,169.127594 500.996399,216.314072   C501.984039,218.071045 503.650085,219.446671 505.000000,221.000000   C505.000000,222.066666 505.000000,223.133347 504.725037,224.281967   C503.967529,224.782120 503.331940,225.110077 503.024475,225.631516   C490.850006,246.279449 478.722687,266.955200 466.553223,287.606079   C441.604248,329.943085 416.607605,372.252014 391.697754,414.612000   C386.972443,422.647583 382.557922,430.865967 378.000000,439.000000  z"
   id="path9" />


<path
   fill="#FDFDFE"
   opacity="1.000000"
   stroke="none"
   d=" M25.469250,182.475677   C47.574120,143.404434 69.443497,104.622627 91.454536,65.921394   C92.419235,64.225197 94.713417,62.145416 96.332336,62.191929   C100.007111,62.297504 98.933731,65.741814 98.934624,68.044807   C98.973511,168.654251 98.973541,269.263702 98.978279,369.873138   C98.978302,370.372864 99.135513,370.941864 98.950943,371.360077   C98.218727,373.019257 97.379692,374.631287 96.580261,376.260742   C95.042007,375.283997 92.886314,374.673462 92.057449,373.275940   C78.048225,349.655975 64.203690,325.938354 50.323433,302.241882   C36.188965,278.111481 22.187363,253.901505 7.821181,229.909836   C4.545652,224.439667 3.507844,220.164841 7.341819,214.247421   C13.894440,204.134003 19.346151,193.307312 25.469250,182.475677  z"
   id="path15" />
</svg>
