<svg version="1.1" id="Layer_1" xmlns="http://www.w3.org/2000/svg" xmlns:xlink="http://www.w3.org/1999/xlink" x="0px" y="0px"
	 width="100%" viewBox="0 0 504 438" enable-background="new 0 0 504 438" xml:space="preserve">
<path fill="#FEFFFF" opacity="1.000000" stroke="none" 
	d="
M378.000000,439.000000 
	C291.312439,439.000000 204.624878,439.000000 117.528610,438.639221 
	C117.418983,436.181305 117.118698,433.735565 118.105736,432.038635 
	C137.419724,398.834381 156.898392,365.726044 176.312668,332.580048 
	C196.574860,297.986450 216.725281,263.326904 237.134048,228.820099 
	C240.185883,223.660080 240.485031,219.428955 237.444992,214.105850 
	C218.146881,180.314682 199.141830,146.356277 179.992691,112.479843 
	C160.689209,78.330353 141.337860,44.207897 121.989014,10.084078 
	C118.747444,4.367216 119.635437,2.770267 126.270287,2.649897 
	C127.103081,2.634789 127.936455,2.653674 128.769562,2.653677 
	C209.081650,2.653977 289.393738,2.653810 369.705841,2.654748 
	C372.204956,2.654777 374.827759,2.196266 377.166290,2.812095 
	C379.254761,3.362076 381.821106,4.648585 382.822479,6.389133 
	C395.872559,29.072807 408.728851,51.868607 421.540619,74.688583 
	C448.040192,121.889053 474.471985,169.127594 500.996399,216.314072 
	C501.984039,218.071045 503.650085,219.446671 505.000000,221.000000 
	C505.000000,222.066666 505.000000,223.133347 504.725037,224.281967 
	C503.967529,224.782120 503.331940,225.110077 503.024475,225.631516 
	C490.850006,246.279449 478.722687,266.955200 466.553223,287.606079 
	C441.604248,329.943085 416.607605,372.252014 391.697754,414.612000 
	C386.972443,422.647583 382.557922,430.865967 378.000000,439.000000 
z"/>
<path fill="#010101" opacity="1.000000" stroke="none" 
	d="
M505.000000,220.531342 
	C503.650085,219.446671 501.984039,218.071045 500.996399,216.314072 
	C474.471985,169.127594 448.040192,121.889053 421.540619,74.688583 
	C408.728851,51.868607 395.872559,29.072807 382.822479,6.389133 
	C381.821106,4.648585 379.254761,3.362076 377.166290,2.812095 
	C374.827759,2.196266 372.204956,2.654777 369.705841,2.654748 
	C289.393738,2.653810 209.081650,2.653977 128.769562,2.653677 
	C127.936455,2.653674 127.103081,2.634789 126.270287,2.649897 
	C119.635437,2.770267 118.747444,4.367216 121.989014,10.084078 
	C141.337860,44.207897 160.689209,78.330353 179.992691,112.479843 
	C199.141830,146.356277 218.146881,180.314682 237.444992,214.105850 
	C240.485031,219.428955 240.185883,223.660080 237.134048,228.820099 
	C216.725281,263.326904 196.574860,297.986450 176.312668,332.580048 
	C156.898392,365.726044 137.419724,398.834381 118.105736,432.038635 
	C117.118698,433.735565 117.418983,436.181305 117.059952,438.639221 
	C78.346558,439.000000 39.693119,439.000000 1.019840,439.000000 
	C1.019840,293.063171 1.019840,147.126343 1.019840,1.094754 
	C168.879318,1.094754 336.758698,1.094754 505.000000,1.094754 
	C505.000000,74.020493 505.000000,147.041595 505.000000,220.531342 
M25.260242,182.780182 
	C19.346151,193.307312 13.894440,204.134003 7.341819,214.247421 
	C3.507844,220.164841 4.545652,224.439667 7.821181,229.909836 
	C22.187363,253.901505 36.188965,278.111481 50.323433,302.241882 
	C64.203690,325.938354 78.048225,349.655975 92.057449,373.275940 
	C92.886314,374.673462 95.042007,375.283997 96.580246,376.260773 
	C97.379692,374.631287 98.218727,373.019257 98.950943,371.360077 
	C99.135513,370.941864 98.978302,370.372864 98.978279,369.873138 
	C98.973541,269.263702 98.973511,168.654251 98.934624,68.044807 
	C98.933731,65.741814 100.007111,62.297504 96.332336,62.191929 
	C94.713417,62.145416 92.419235,64.225197 91.454536,65.921394 
	C69.443497,104.622627 47.574120,143.404434 25.260242,182.780182 
z"/>
<path fill="#010101" opacity="1.000000" stroke="none" 
	d="
M378.468658,439.000000 
	C382.557922,430.865967 386.972443,422.647583 391.697754,414.612000 
	C416.607605,372.252014 441.604248,329.943085 466.553223,287.606079 
	C478.722687,266.955200 490.850006,246.279449 503.024475,225.631516 
	C503.331940,225.110077 503.967529,224.782120 504.725037,224.681961 
	C505.000000,296.241730 505.000000,367.483429 505.000000,439.000000 
	C462.979492,439.000000 420.958405,439.000000 378.468658,439.000000 
z"/>
<path fill="#FDFDFE" opacity="1.000000" stroke="none" 
	d="
M25.469250,182.475677 
	C47.574120,143.404434 69.443497,104.622627 91.454536,65.921394 
	C92.419235,64.225197 94.713417,62.145416 96.332336,62.191929 
	C100.007111,62.297504 98.933731,65.741814 98.934624,68.044807 
	C98.973511,168.654251 98.973541,269.263702 98.978279,369.873138 
	C98.978302,370.372864 99.135513,370.941864 98.950943,371.360077 
	C98.218727,373.019257 97.379692,374.631287 96.580261,376.260742 
	C95.042007,375.283997 92.886314,374.673462 92.057449,373.275940 
	C78.048225,349.655975 64.203690,325.938354 50.323433,302.241882 
	C36.188965,278.111481 22.187363,253.901505 7.821181,229.909836 
	C4.545652,224.439667 3.507844,220.164841 7.341819,214.247421 
	C13.894440,204.134003 19.346151,193.307312 25.469250,182.475677 
z"/>
</svg>